<?xml version="1.0" standalone="no"?>
<!DOCTYPE svg PUBLIC "-//W3C//DTD SVG 20010904//EN"
 "http://www.w3.org/TR/2001/REC-SVG-20010904/DTD/svg10.dtd">
<svg version="1.0" xmlns="http://www.w3.org/2000/svg"
 width="234.000000pt" height="234.000000pt" viewBox="0 0 234.000000 234.000000"
 preserveAspectRatio="xMidYMid meet">

<g transform="translate(0.000000,234.000000) scale(0.100000,-0.100000)"
fill="#000000" stroke="none">
<path d="M0 1170 l0 -1170 1170 0 1170 0 0 1170 0 1170 -1170 0 -1170 0 0
-1170z m2330 0 l0 -1160 -1160 0 -1160 0 0 1160 0 1160 1160 0 1160 0 0 -1160z"/>
<path d="M853 2250 c3 -11 -1 -41 -9 -67 -8 -26 -11 -56 -8 -67 6 -18 5 -19
-9 -8 -13 11 -15 10 -10 -10 6 -23 6 -23 -15 -4 l-22 19 0 -34 c0 -19 5 -40
11 -46 9 -9 7 -29 -5 -80 -36 -156 -40 -204 -19 -288 3 -16 2 -17 -6 -5 -8 11
-11 3 -11 -35 0 -32 3 -45 9 -36 6 9 8 -4 8 -35 -1 -72 34 -224 60 -263 13
-19 23 -39 23 -46 0 -17 39 -65 52 -65 6 0 5 7 -3 18 -13 15 -12 16 2 4 10 -7
15 -21 12 -33 -3 -11 8 -45 27 -81 26 -48 33 -72 31 -111 -1 -34 6 -66 25
-107 14 -32 25 -69 24 -82 -1 -13 -2 -56 -1 -96 0 -52 -4 -81 -16 -98 -15 -24
-16 -24 -29 -5 -8 11 -17 40 -20 64 -6 42 -5 45 20 51 21 5 27 12 24 29 -2 14
-11 23 -25 25 -15 2 -24 13 -29 35 -3 18 -14 43 -23 57 -21 31 -51 94 -51 108
0 6 -5 14 -12 18 -11 7 -10 -1 11 -88 5 -21 5 -36 1 -33 -5 3 -11 19 -15 35
-6 27 -14 34 -31 28 -4 -2 -18 22 -31 52 -28 62 -84 220 -78 220 5 0 -25 45
-64 98 -14 17 -26 42 -28 54 -3 21 -46 68 -62 68 -9 0 -5 55 4 71 4 5 2 9 -4
9 -5 0 -15 -8 -20 -17 -16 -28 -13 -12 10 53 11 32 22 75 23 94 3 37 34 110
48 110 4 0 8 12 8 28 1 24 2 25 14 10 7 -10 23 -18 36 -18 18 0 20 3 11 14 -7
8 -10 26 -7 41 3 16 -2 37 -11 51 -10 16 -13 32 -7 51 4 16 7 30 7 33 -7 65
-13 100 -22 121 -5 15 -7 29 -4 32 8 9 33 -4 27 -14 -3 -5 2 -9 11 -9 8 0 19
-8 22 -17 10 -27 31 -45 38 -33 11 18 -6 77 -31 103 -13 14 -24 33 -24 42 0 9
-6 15 -12 12 -7 -2 -18 3 -24 11 -7 9 -48 20 -114 29 -96 13 -106 13 -136 -3
-18 -10 -38 -28 -45 -41 -7 -13 -16 -23 -21 -23 -4 0 -8 -9 -8 -20 0 -11 -8
-28 -17 -38 -27 -27 -47 -82 -47 -129 0 -24 -4 -43 -8 -43 -12 0 -10 -74 2
-106 9 -22 8 -29 -5 -37 -24 -13 -11 -125 17 -149 27 -24 52 -24 39 0 -5 9 -7
30 -4 45 6 28 6 28 27 9 35 -32 67 -44 97 -38 26 5 29 3 25 -17 -9 -44 -30
-93 -54 -125 -18 -24 -22 -36 -14 -44 8 -8 8 -17 1 -30 -5 -10 -7 -23 -4 -28
3 -6 -1 -7 -10 -4 -15 6 -55 -21 -55 -38 0 -4 16 -8 35 -8 19 0 35 4 35 10 0
5 7 7 15 4 8 -4 15 -10 15 -16 0 -5 -3 -7 -7 -5 -5 3 -9 -8 -10 -24 -1 -15 2
-31 7 -34 6 -4 10 5 10 19 0 17 6 26 16 26 26 0 14 -54 -13 -58 -13 -2 -23 -7
-23 -12 0 -5 8 -7 18 -3 9 3 14 3 11 -1 -4 -4 -3 -23 1 -42 7 -29 5 -34 -11
-34 -23 0 -25 -29 -3 -56 8 -10 13 -13 9 -6 -7 13 4 16 20 4 6 -4 11 -41 11
-84 1 -59 -2 -75 -13 -71 -7 3 -13 0 -13 -6 0 -6 -9 -2 -20 9 -26 26 -38 25
-36 -3 0 -14 7 -24 16 -23 8 1 15 -5 15 -13 0 -8 8 -17 18 -20 17 -6 26 -19
62 -88 10 -18 21 -33 26 -33 5 0 9 -8 9 -18 0 -9 23 -46 51 -81 52 -63 52 -63
65 -40 10 19 13 20 14 6 0 -9 6 -16 13 -15 19 4 21 -56 2 -72 -14 -12 -22 -7
-58 34 -27 29 -48 45 -57 42 -10 -4 -21 5 -31 22 -9 16 -24 29 -33 29 -22 0
-21 -3 18 -56 50 -70 58 -88 44 -97 -7 -4 -8 -3 -4 4 4 7 2 12 -3 12 -25 0 -7
-36 39 -78 28 -25 50 -51 50 -58 0 -7 6 -11 13 -8 8 3 13 -4 14 -18 0 -13 -1
-17 -4 -10 -3 6 -9 12 -14 12 -5 0 -27 11 -48 24 l-39 25 -4 -29 c-3 -16 0
-34 6 -40 19 -19 1 -18 -39 1 -22 11 -45 17 -52 15 -7 -3 -13 -1 -13 4 0 6 -9
10 -20 10 -11 0 -20 5 -20 11 0 19 -105 116 -134 123 -27 7 -27 6 -12 -21 8
-15 31 -45 51 -67 20 -21 34 -43 32 -49 -3 -11 55 -57 72 -57 4 0 18 -11 31
-25 12 -13 26 -22 30 -20 4 3 10 -4 13 -15 3 -11 10 -20 15 -20 6 0 8 8 5 19
-8 29 13 33 31 6 9 -14 24 -25 34 -24 14 0 14 2 -3 9 -16 7 -17 9 -3 9 9 1 20
-4 23 -10 4 -6 14 -8 22 -5 20 8 73 -34 73 -58 0 -15 3 -17 8 -8 6 9 20 6 58
-13 27 -14 54 -25 61 -25 23 0 21 -15 -3 -16 -13 -1 -24 2 -24 6 0 4 -9 10
-20 13 -11 3 -18 1 -14 -4 3 -5 0 -9 -5 -9 -20 0 -11 -19 12 -26 12 -3 29 -13
38 -20 9 -8 47 -21 85 -30 88 -19 79 -17 144 -39 81 -27 212 -24 234 7 7 9 24
20 39 23 24 6 45 22 46 35 0 19 15 40 21 31 4 -7 11 -3 19 11 10 20 20 23 69
23 31 0 63 -4 70 -9 8 -5 20 -2 31 8 10 9 25 16 34 16 9 0 16 3 15 8 -3 10 61
76 95 97 15 10 27 22 27 28 0 6 -11 0 -26 -14 -18 -17 -23 -19 -18 -6 3 9 10
17 15 17 5 0 9 6 9 13 0 8 9 22 20 32 18 16 20 16 36 1 25 -26 45 -16 76 37
33 56 45 116 29 145 -6 12 -7 23 -2 26 5 4 12 0 15 -6 8 -16 -1 59 -10 89 -5
17 -2 23 10 23 11 0 16 9 16 26 0 21 -3 24 -13 15 -19 -15 -27 -4 -27 34 0 49
-13 50 -35 3 -24 -52 -59 -64 -69 -23 -4 14 -1 35 5 48 11 19 10 20 -2 10 -12
-10 -18 -8 -32 7 -23 27 -22 30 13 30 35 0 49 22 30 45 -7 9 -10 19 -6 22 4 4
12 1 17 -7 8 -11 9 -5 4 23 -4 28 -3 37 8 37 8 0 18 7 21 16 5 14 4 15 -9 4
-10 -8 -15 -9 -15 -2 0 6 9 16 21 22 11 6 24 21 29 33 7 17 9 18 9 5 1 -11 9
-18 20 -18 14 0 19 6 16 19 -2 13 1 18 9 15 19 -7 40 69 38 135 -3 124 34 276
77 315 17 15 17 13 14 -29 -4 -43 -3 -45 22 -45 20 0 26 4 22 15 -4 8 -2 17 3
20 16 10 12 37 -11 80 -20 37 -20 40 -4 68 10 17 13 27 5 22 -9 -5 -10 -2 -5
14 4 13 2 21 -5 21 -8 0 -10 -10 -8 -25 3 -13 1 -22 -3 -19 -9 5 -68 -24 -82
-41 -8 -10 -4 51 6 93 3 12 0 37 -7 55 -7 17 -11 38 -9 45 4 10 -8 16 -29 13
-11 -1 -28 93 -17 103 5 6 9 22 9 36 0 19 -7 28 -29 36 -25 10 -29 17 -34 65
-2 30 -1 59 3 64 4 6 10 22 12 37 5 30 -21 68 -47 68 -20 0 -30 -47 -15 -65
13 -15 9 -170 -7 -269 -6 -36 -4 -39 15 -34 15 4 19 2 15 -8 -3 -8 2 -16 10
-20 28 -10 32 -63 8 -95 -15 -20 -20 -38 -16 -56 l5 -28 -14 30 c-8 17 -18 49
-22 72 -3 24 -10 41 -14 38 -9 -6 -5 -28 18 -100 9 -27 15 -58 13 -68 -1 -10
5 -27 14 -37 15 -16 15 -21 1 -47 -8 -16 -22 -35 -30 -42 -9 -8 -16 -21 -16
-31 0 -30 39 -12 60 29 l19 36 1 -34 c0 -50 -30 -112 -52 -105 -10 3 -18 0
-18 -6 0 -7 -9 -10 -22 -7 -18 4 -30 -4 -54 -36 -17 -23 -37 -40 -45 -38 -8 2
-20 4 -26 4 -16 0 -16 0 -2 30 13 28 49 54 49 35 1 -7 10 -2 20 11 21 24 27
47 11 37 -5 -4 -7 4 -3 16 4 17 2 20 -15 16 -15 -4 -24 2 -35 21 -9 14 -13 32
-11 39 3 6 -1 12 -9 12 -7 0 -33 30 -58 67 -49 72 -64 103 -51 103 5 0 11 -6
14 -12 2 -7 7 -11 10 -8 7 7 -79 100 -93 100 -6 0 -10 6 -10 13 0 14 -31 47
-43 47 -4 0 -7 -8 -7 -17 0 -10 -5 -25 -11 -33 -8 -12 -9 -11 -4 6 4 14 0 24
-9 27 -10 4 -13 1 -9 -9 3 -8 -1 -14 -11 -14 -10 0 -13 -6 -10 -15 4 -8 0 -22
-7 -31 -10 -13 -9 -16 9 -21 12 -3 22 -11 22 -17 0 -6 10 -20 21 -30 17 -14
23 -15 30 -5 6 10 10 10 23 0 17 -14 94 -149 95 -166 1 -5 -13 -11 -30 -12
-35 -2 -116 -78 -92 -87 14 -6 18 -36 5 -36 -4 0 -13 9 -20 21 -7 12 -16 18
-19 15 -3 -3 -1 -11 4 -18 21 -26 23 -121 4 -175 -10 -30 -14 -58 -9 -66 6
-11 2 -14 -16 -14 -32 0 -86 -25 -86 -39 0 -15 -51 -25 -54 -10 -22 85 -25
108 -17 124 6 9 13 38 16 65 5 36 10 47 24 47 10 0 41 23 69 50 53 51 56 58
20 39 -19 -10 -20 -9 -14 15 3 14 2 26 -3 26 -18 0 -20 45 -3 79 18 38 18 81
0 121 -14 32 -25 60 -32 83 -3 10 -10 15 -16 12 -5 -3 -10 3 -10 14 0 22 -20
30 -20 9 0 -7 -5 -5 -11 5 -13 21 -29 22 -29 1 0 -15 -2 -15 -24 -1 -24 16
-46 7 -46 -19 0 -6 -8 -11 -17 -10 -10 0 -22 -9 -28 -21 -5 -13 -15 -23 -21
-23 -8 0 -9 -13 -4 -40 4 -22 5 -40 2 -40 -2 0 1 -6 7 -13 6 -8 8 -17 4 -20
-3 -4 1 -7 9 -7 9 0 18 11 20 25 4 17 1 25 -9 25 -11 0 -11 5 2 30 11 21 23
30 39 30 14 0 31 3 40 6 11 4 16 1 16 -10 0 -9 7 -16 16 -16 10 0 14 -6 11
-15 -4 -8 -2 -17 3 -20 4 -3 10 0 12 7 2 6 4 -17 4 -53 0 -78 -12 -91 -76 -83
-56 8 -64 12 -50 29 15 18 -6 31 -25 15 -14 -12 -14 -60 -1 -92 5 -11 2 -23
-7 -33 -11 -10 -17 -11 -19 -3 -2 6 -16 12 -30 12 -21 1 -24 -1 -16 -11 6 -7
16 -13 23 -13 14 0 82 -79 106 -124 12 -23 13 -36 5 -58 -8 -21 -7 -34 2 -49
7 -11 10 -24 6 -30 -3 -5 0 -17 7 -26 11 -13 9 -19 -16 -40 -29 -25 -29 -25
-37 -4 -8 24 -20 26 -48 9 -16 -11 -22 -9 -34 7 -9 11 -16 27 -16 35 0 8 -10
35 -22 60 -11 25 -22 50 -24 57 -7 37 -27 83 -35 83 -5 0 -9 6 -9 14 0 8 -7
22 -16 30 -8 9 -12 21 -8 27 4 8 3 9 -5 5 -7 -4 -15 2 -21 16 -9 20 -10 18 -8
-14 1 -20 -1 -40 -5 -45 -16 -15 -24 21 -19 83 5 63 4 64 -27 81 -23 14 -31
25 -31 47 0 23 3 26 14 17 11 -9 15 -9 18 0 7 20 37 18 43 -2 7 -20 7 -20 24
0 18 20 18 20 29 -17 15 -50 -3 -119 -26 -99 -13 11 -14 9 -1 -10 8 -13 17
-23 21 -23 5 0 8 -6 8 -14 0 -8 7 -16 15 -20 8 -3 15 -12 15 -20 0 -8 4 -17 9
-20 14 -9 1 32 -15 45 -16 13 -19 33 -4 24 6 -4 10 8 10 30 0 33 2 36 23 31
l22 -6 -23 12 c-17 8 -22 19 -20 43 1 21 -9 49 -30 83 -18 29 -32 58 -32 65
-1 7 -6 5 -14 -5 -12 -16 -14 -16 -34 3 -12 11 -22 15 -22 9 0 -5 -4 -10 -9
-10 -9 0 -6 81 5 140 3 19 7 53 8 76 0 22 6 47 12 55 5 8 26 40 44 72 19 31
39 57 45 57 5 0 19 12 29 27 l19 26 -26 -7 c-48 -12 -55 -1 -49 71 4 56 2 69
-14 80 -26 19 -37 16 -31 -7z m-276 -82 c20 -19 21 -23 8 -30 -13 -8 -11 -13
10 -35 28 -31 46 -130 26 -142 -6 -4 -9 -15 -6 -24 4 -8 -5 -36 -19 -62 -25
-44 -27 -73 -4 -59 6 4 8 2 4 -4 -3 -5 -1 -12 6 -14 17 -6 18 -36 1 -42 -12
-5 -14 -1 -10 15 4 16 3 19 -5 11 -7 -7 -16 -8 -23 -2 -8 7 -17 -5 -29 -40
-21 -57 -41 -79 -58 -62 -7 7 -16 8 -23 2 -12 -10 -88 9 -106 27 -6 6 -13 29
-15 50 -1 21 -4 45 -5 53 -1 8 -1 36 -1 62 2 40 5 46 20 41 14 -5 15 -3 5 8
-19 20 -16 54 8 75 18 17 19 19 4 30 -9 7 -12 15 -7 18 5 3 7 17 4 31 -3 17 2
33 16 48 11 12 23 32 26 44 12 39 133 39 173 1z m89 -332 c3 -8 0 -23 -6 -33
-10 -16 -11 -16 -7 5 3 12 1 22 -4 22 -5 0 -9 -5 -9 -12 0 -6 -2 -9 -5 -6 -8
7 5 38 16 38 5 0 12 -6 15 -14z m1224 -239 c0 -5 -4 -5 -10 -2 -5 3 -10 14
-10 23 0 15 2 15 10 2 5 -8 10 -19 10 -23z m-1000 13 c0 -5 -5 -10 -11 -10 -5
0 -7 5 -4 10 3 6 8 10 11 10 2 0 4 -4 4 -10z m967 -22 c-3 -7 -5 -2 -5 12 0
14 2 19 5 13 2 -7 2 -19 0 -25z m-919 -53 c-3 -3 -9 2 -12 12 -6 14 -5 15 5 6
7 -7 10 -15 7 -18z m649 -106 c7 -6 13 -20 13 -30 0 -10 4 -20 10 -24 19 -12
-3 -34 -69 -69 -64 -34 -69 -35 -84 -18 -24 27 -8 108 29 138 30 25 72 26 101
3z m-770 -51 c-3 -7 -5 -2 -5 12 0 14 2 19 5 13 2 -7 2 -19 0 -25z m488 -8 c3
-5 2 -10 -3 -10 -5 0 -14 -10 -20 -22 -9 -21 -10 -21 -7 7 5 38 3 35 14 35 6
0 13 -4 16 -10z m-753 -89 c1 -18 7 -35 12 -38 5 -3 6 -1 2 5 -4 7 -3 12 2 12
5 0 12 -9 15 -21 3 -12 10 -18 16 -15 10 7 37 -32 33 -47 -1 -5 7 -20 18 -34
11 -14 20 -20 20 -12 0 19 24 -17 44 -66 l17 -40 -26 30 c-18 21 -23 24 -18
10 3 -11 12 -27 19 -36 8 -8 15 -28 16 -42 1 -15 7 -27 12 -27 5 0 7 -3 3 -6
-3 -4 5 -29 19 -56 25 -49 25 -88 1 -88 -8 0 -8 -3 -2 -8 6 -4 19 -26 30 -50
16 -37 17 -45 4 -53 -8 -5 -20 -7 -26 -4 -8 2 -13 -4 -13 -15 0 -29 -28 -25
-36 5 -3 14 -18 35 -33 48 -29 24 -30 26 -38 57 -5 17 -11 20 -35 15 -29 -7
-29 -6 -15 17 13 20 13 42 5 119 -1 9 -8 21 -15 28 -10 9 -12 -2 -10 -59 1
-38 6 -70 11 -70 5 0 3 -7 -5 -16 -13 -16 -17 -11 -55 66 -5 8 -14 21 -21 28
-7 8 -11 18 -7 23 3 5 0 8 -7 7 -6 -2 -14 3 -17 11 -3 8 0 11 7 7 6 -4 11 -3
11 3 0 5 -4 12 -8 15 -13 8 -15 106 -2 106 5 0 10 7 10 16 0 9 7 14 18 12 18
-4 54 31 45 44 -2 5 -12 8 -21 8 -33 0 -44 17 -47 71 -3 48 -2 52 11 34 8 -10
14 -13 14 -6 0 7 5 9 10 6 6 -3 10 -1 10 4 0 6 -4 11 -10 11 -6 0 -5 10 2 25
14 31 26 17 30 -34z m665 -43 c-3 -7 -5 -2 -5 12 0 14 2 19 5 13 2 -7 2 -19 0
-25z m-281 -19 c4 -8 9 -7 15 2 6 10 8 9 8 -6 0 -11 3 -33 7 -50 l7 -30 -22
19 c-11 11 -21 23 -21 29 0 5 -10 23 -22 39 l-21 30 21 -11 c11 -6 24 -16 28
-22z m676 6 c-4 -22 -1 -25 28 -25 24 0 31 -4 27 -14 -4 -10 -1 -13 9 -9 7 3
14 0 14 -7 0 -6 5 -8 10 -5 18 11 10 -53 -11 -92 -12 -21 -25 -43 -30 -49 -5
-6 -6 -14 -2 -17 3 -4 -6 -7 -21 -7 -21 0 -27 -4 -22 -15 3 -8 4 -15 2 -15 -3
0 -12 -3 -22 -7 -11 -4 -15 -3 -11 4 4 7 -5 16 -20 21 -16 6 -21 11 -12 11 9
1 20 8 23 17 8 21 8 26 -3 20 -11 -7 -25 25 -14 33 4 3 9 21 10 40 3 45 31
141 42 141 4 0 6 -11 3 -25z m-148 -68 c-3 -8 -12 -18 -20 -21 -11 -4 -10 0 3
18 20 26 27 28 17 3z m67 -13 c-5 -16 -10 -21 -10 -12 -1 18 10 51 15 45 2 -1
-1 -16 -5 -33z m-346 -104 c-3 -5 -12 -10 -18 -10 -7 0 -6 4 3 10 19 12 23 12
15 0z m223 -15 c-6 -14 -18 -25 -26 -25 -12 0 -10 6 8 25 13 14 25 25 27 25 1
0 -3 -11 -9 -25z m-70 -12 c-12 -14 -48 -18 -48 -5 0 15 10 20 35 18 17 -1 21
-4 13 -13z m488 5 c4 -7 4 -10 -1 -6 -4 4 -15 2 -24 -5 -14 -11 -14 -10 -2 6
16 20 18 21 27 5z m-597 -55 c14 -49 14 -53 -2 -53 -7 0 -29 -11 -50 -25 -34
-24 -38 -25 -60 -10 -13 8 -29 27 -36 42 -11 23 -10 29 5 40 10 7 30 13 44 13
14 0 31 5 38 12 9 9 12 5 12 -19 0 -17 6 -36 14 -43 13 -10 13 -7 4 18 -12 30
-6 62 11 62 6 0 15 -17 20 -37z m208 -3 c-7 -17 -13 -26 -15 -21 -3 10 15 51
22 51 3 0 -1 -14 -7 -30z m-86 -8 c-24 -45 -97 -64 -89 -23 2 10 15 17 35 19
17 2 37 10 44 18 16 20 23 10 10 -14z m185 3 c-3 -8 0 -15 7 -15 8 0 7 -4 -3
-10 -8 -5 -11 -12 -7 -16 4 -4 2 -13 -4 -21 -6 -7 -9 -13 -5 -13 3 0 -2 -9
-11 -19 -9 -11 -22 -17 -29 -14 -8 3 -14 0 -14 -6 0 -6 -4 -11 -10 -11 -21 0
-9 31 25 67 20 21 31 39 25 41 -6 2 -3 10 7 18 23 17 26 17 19 -1z m-526 -65
c0 -13 -1 -13 -10 0 -5 8 -10 22 -10 30 0 13 1 13 10 0 5 -8 10 -22 10 -30z
m340 -28 c-14 -19 -21 -40 -18 -54 4 -20 0 -24 -21 -26 -13 -1 -33 -9 -43 -18
-14 -13 -21 -14 -32 -5 -10 8 -16 9 -21 1 -3 -5 -19 -10 -34 -10 -15 0 -36 -9
-46 -20 -24 -26 -33 -25 -31 3 1 12 -2 25 -7 28 -14 10 2 48 24 59 17 10 19 7
20 -22 1 -20 3 -25 6 -14 6 22 52 65 71 66 6 0 12 -12 12 -26 0 -23 2 -25 16
-13 9 7 14 22 11 35 -4 24 23 40 41 22 11 -11 62 10 62 25 0 6 3 8 6 4 3 -3
-4 -19 -16 -35z m-130 -134 c0 -7 8 -22 16 -33 16 -20 16 -20 9 3 -8 27 14 39
44 23 16 -9 22 -8 29 6 9 15 12 15 27 3 21 -17 16 -50 -10 -64 -11 -5 -32 -18
-47 -28 -22 -15 -26 -15 -22 -3 7 18 -21 21 -32 3 -8 -13 -12 -69 -6 -81 2 -5
9 1 16 13 6 13 30 29 54 37 24 8 59 23 78 34 28 15 34 16 34 4 0 -8 -4 -15
-10 -15 -5 0 -7 -6 -4 -13 7 -20 -68 -120 -93 -124 -20 -2 -24 3 -29 37 -8 46
-19 52 -29 13 -4 -19 -2 -29 9 -35 24 -14 19 -28 -10 -28 -32 0 -77 34 -85 63
-3 12 -11 21 -17 19 -13 -2 -16 17 -6 42 3 9 10 13 15 10 6 -3 16 -1 23 5 8 7
19 10 26 9 7 -2 15 3 17 10 3 8 -5 12 -25 12 -35 0 -55 20 -50 52 3 21 17 28
71 37 4 0 7 -5 7 -11z m-440 -52 c0 -3 -4 -8 -10 -11 -5 -3 -10 -1 -10 4 0 6
5 11 10 11 6 0 10 -2 10 -4z m330 -71 c0 -5 -5 -3 -10 5 -5 8 -10 20 -10 25 0
6 5 3 10 -5 5 -8 10 -19 10 -25z m-410 -231 c0 -2 -7 -4 -15 -4 -8 0 -15 4
-15 10 0 5 7 7 15 4 8 -4 15 -8 15 -10z m129 -74 c17 -7 31 -17 31 -22 0 -6 7
-7 16 -4 10 4 13 2 8 -6 -5 -7 -2 -9 8 -5 9 3 24 -1 35 -8 16 -13 15 -14 -19
-15 -20 0 -40 5 -43 11 -4 6 -13 8 -21 5 -8 -3 -14 -1 -14 4 0 5 -7 7 -15 4
-8 -4 -15 -1 -15 5 0 6 -14 20 -31 30 l-31 19 30 -3 c17 -1 44 -8 61 -15z
m641 -85 c0 -2 -10 -9 -22 -15 -22 -11 -22 -10 -4 4 21 17 26 19 26 11z"/>
<path d="M582 1182 c-6 -2 -12 -8 -12 -13 0 -6 5 -7 10 -4 6 3 10 -1 10 -9 0
-20 19 -31 33 -17 13 13 -21 50 -41 43z"/>
<path d="M750 861 c0 -5 5 -13 10 -16 6 -3 10 -2 10 4 0 5 -4 13 -10 16 -5 3
-10 2 -10 -4z"/>
<path d="M1475 880 c-3 -5 3 -10 14 -10 12 0 21 5 21 10 0 6 -6 10 -14 10 -8
0 -18 -4 -21 -10z"/>
<path d="M2160 2124 c-15 -8 -26 -9 -28 -4 -6 17 -30 11 -37 -10 -3 -11 -3
-29 0 -40 4 -12 2 -20 -5 -20 -7 0 -20 -10 -30 -22 -18 -22 -19 -22 -38 -5
-28 25 -36 8 -27 -59 4 -33 12 -57 21 -61 19 -7 44 -97 49 -174 3 -46 9 -68
24 -82 l20 -21 11 28 c14 38 13 48 -10 106 -11 28 -20 67 -20 88 0 47 18 112
30 112 6 0 10 10 10 23 0 45 30 62 120 70 23 2 26 8 22 36 -1 5 -18 15 -37 21
-19 6 -35 16 -35 21 0 12 -9 10 -40 -7z m-90 -164 c0 -5 -2 -10 -4 -10 -3 0
-8 5 -11 10 -3 6 -1 10 4 10 6 0 11 -4 11 -10z"/>
<path d="M1480 2070 c0 -5 5 -10 10 -10 6 0 10 5 10 10 0 6 -4 10 -10 10 -5 0
-10 -4 -10 -10z"/>
<path d="M1700 1990 c0 -23 4 -30 20 -30 22 0 25 12 10 41 -16 28 -30 23 -30
-11z"/>
<path d="M1760 1961 c0 -5 7 -11 14 -14 10 -4 13 -1 9 9 -6 15 -23 19 -23 5z"/>
<path d="M918 1887 c-2 -13 1 -29 9 -35 10 -10 11 -6 6 20 -8 42 -10 44 -15
15z"/>
<path d="M865 1870 c3 -5 8 -10 11 -10 2 0 4 5 4 10 0 6 -5 10 -11 10 -5 0 -7
-4 -4 -10z"/>
<path d="M927 1813 c-10 -9 -9 -23 1 -23 5 0 9 7 9 15 0 17 -1 18 -10 8z"/>
<path d="M1365 1810 c-3 -5 -1 -10 4 -10 6 0 11 5 11 10 0 6 -2 10 -4 10 -3 0
-8 -4 -11 -10z"/>
<path d="M1782 1790 c0 -14 2 -19 5 -12 2 6 2 18 0 25 -3 6 -5 1 -5 -13z"/>
<path d="M1256 1785 c4 -8 7 -15 9 -15 1 0 19 -7 39 -15 32 -14 36 -14 36 0 0
8 -8 15 -18 15 -10 0 -27 7 -38 15 -25 19 -35 19 -28 0z"/>
<path d="M908 1763 c6 -2 10 -9 6 -14 -3 -5 0 -10 5 -10 6 -1 16 -2 21 -3 6 0
15 -8 20 -16 5 -8 10 -11 10 -7 0 20 -34 57 -54 56 -11 0 -15 -3 -8 -6z"/>
<path d="M939 1633 c-13 -16 -12 -17 4 -4 9 7 17 15 17 17 0 8 -8 3 -21 -13z"/>
<path d="M1158 1623 c-20 -5 -23 -18 -8 -28 13 -8 52 14 45 26 -6 9 -9 10 -37
2z"/>
<path d="M950 1579 c0 -5 5 -7 10 -4 6 3 10 8 10 11 0 2 -4 4 -10 4 -5 0 -10
-5 -10 -11z"/>
<path d="M1630 1562 c0 -5 7 -15 15 -22 8 -7 15 -9 15 -6 0 4 -7 14 -15 22 -8
9 -15 11 -15 6z"/>
<path d="M709 1455 c-6 -25 9 -105 21 -105 4 0 4 17 0 38 -5 20 -10 48 -12 62
-3 22 -4 23 -9 5z"/>
<path d="M2011 1403 c5 -31 -4 -74 -17 -88 -15 -15 -15 -17 1 -35 23 -25 35
-25 30 0 -2 13 3 21 17 26 16 5 18 8 7 15 -12 7 -11 14 4 40 23 42 22 49 -13
49 -16 0 -29 -3 -29 -7z"/>
<path d="M982 1320 c0 -14 2 -19 5 -12 2 6 2 18 0 25 -3 6 -5 1 -5 -13z"/>
<path d="M312 1307 c-11 -13 -40 -91 -48 -131 -11 -48 -14 -194 -5 -217 8 -19
10 -11 10 44 1 55 4 67 17 67 11 0 15 6 11 20 -3 10 0 21 7 24 7 3 7 8 -3 14
-12 8 -12 14 -3 25 7 8 13 26 14 41 1 14 6 26 11 26 4 0 5 5 2 10 -3 6 0 10 9
10 16 0 16 15 -2 46 -6 12 -8 24 -5 28 3 3 4 6 1 6 -3 0 -10 -6 -16 -13z"/>
<path d="M2064 1299 c-3 -6 -1 -16 5 -22 8 -8 11 -5 11 11 0 24 -5 28 -16 11z"/>
<path d="M400 1229 c0 -5 5 -7 10 -4 6 3 10 8 10 11 0 2 -4 4 -10 4 -5 0 -10
-5 -10 -11z"/>
<path d="M2010 1213 c1 -10 8 -31 16 -48 8 -16 12 -22 9 -12 -2 10 1 17 8 17
19 0 36 21 30 36 -3 8 -9 11 -14 8 -5 -2 -18 0 -29 6 -17 9 -20 8 -20 -7z"/>
<path d="M740 1180 c6 -11 12 -20 14 -20 2 0 2 9 -1 20 -3 11 -9 20 -15 20 -5
0 -4 -9 2 -20z"/>
<path d="M2030 1045 c0 -53 4 -85 11 -85 5 0 7 5 3 12 -4 7 -3 8 4 4 6 -4 9
-13 6 -20 -3 -8 -1 -17 5 -21 7 -4 11 3 11 17 0 13 3 33 6 46 5 18 2 22 -15
22 -14 0 -19 5 -14 16 5 13 7 13 14 2 6 -9 9 -9 9 -1 0 6 -5 15 -10 18 -7 4
-6 13 1 27 8 15 8 19 0 14 -7 -4 -11 1 -11 13 0 12 -4 21 -10 21 -6 0 -10 -35
-10 -85z"/>
<path d="M1990 1034 c0 -8 5 -12 10 -9 6 4 8 11 5 16 -9 14 -15 11 -15 -7z"/>
<path d="M1951 1021 c-8 -6 -11 -16 -7 -27 5 -12 10 -14 17 -7 16 16 7 45 -10
34z"/>
<path d="M1884 993 c4 -7 3 -13 -3 -13 -5 0 -13 -9 -16 -20 -3 -11 -13 -20
-21 -20 -12 0 -12 -2 -2 -14 7 -8 16 -12 19 -10 4 2 10 -3 13 -12 9 -23 8 -27
-9 -21 -8 4 -17 1 -21 -4 -4 -7 4 -10 22 -7 19 2 28 -1 27 -10 -2 -6 2 -12 8
-12 6 0 9 9 6 19 -2 11 -1 37 3 60 6 34 4 43 -13 58 -11 10 -17 12 -13 6z"/>
<path d="M299 955 c-4 -3 -3 -22 1 -41 4 -18 6 -34 3 -34 -2 0 3 -10 11 -22
22 -31 20 -41 -5 -33 -18 6 -20 4 -14 -15 5 -17 4 -20 -5 -15 -9 5 -11 4 -6
-4 4 -6 11 -9 16 -6 4 2 13 -8 19 -24 7 -15 32 -48 57 -72 24 -24 44 -48 44
-54 0 -6 17 -19 38 -30 20 -11 40 -24 44 -30 5 -6 8 -6 8 2 0 6 -13 25 -30 41
-16 17 -31 41 -31 54 -1 13 -3 37 -4 53 -3 30 -3 30 12 8 21 -32 37 -29 17 2
-12 18 -22 24 -35 20 -12 -4 -21 -1 -25 9 -3 9 -12 16 -19 16 -6 0 -20 10 -31
22 -10 12 -13 18 -7 14 9 -5 11 -2 7 8 -3 9 -10 16 -16 16 -5 0 -6 4 -3 10 3
5 -1 21 -10 34 -9 14 -14 30 -10 36 3 5 2 10 -4 10 -5 0 -11 7 -13 16 -2 9 -6
13 -9 9z"/>
<path d="M270 900 c0 -16 4 -30 8 -30 5 0 7 14 4 30 -2 17 -6 30 -8 30 -2 0
-4 -13 -4 -30z"/>
<path d="M1786 824 c-4 -10 -1 -14 6 -12 15 5 23 28 10 28 -5 0 -13 -7 -16
-16z"/>
<path d="M640 184 c0 -8 5 -12 10 -9 6 3 10 10 10 16 0 5 -4 9 -10 9 -5 0 -10
-7 -10 -16z"/>
<path d="M660 170 c0 -7 8 -10 20 -7 10 3 21 1 24 -4 2 -5 3 -4 2 3 -3 17 -46
23 -46 8z"/>
<path d="M1586 155 c-9 -26 -7 -32 5 -12 6 10 9 21 6 23 -2 3 -7 -2 -11 -11z"/>
</g>
</svg>
